<svg xmlns="http://www.w3.org/2000/svg" width="720" height="720" viewBox="0 0 720 720">
<rect width="100%" height="100%" fill="white"/>
<circle cx="30" cy="30" r="5" fill="black"/>
<circle cx="30" cy="90" r="5" fill="black"/>
<circle cx="30" cy="150" r="5" fill="black"/>
<circle cx="30" cy="210" r="5" fill="black"/>
<circle cx="30" cy="270" r="5" fill="black"/>
<circle cx="30" cy="330" r="5" fill="black"/>
<circle cx="30" cy="390" r="5" fill="black"/>
<circle cx="30" cy="450" r="5" fill="black"/>
<circle cx="30" cy="510" r="5" fill="black"/>
<circle cx="30" cy="570" r="5" fill="black"/>
<circle cx="30" cy="630" r="5" fill="black"/>
<circle cx="30" cy="690" r="5" fill="black"/>
<circle cx="90" cy="30" r="5" fill="black"/>
<circle cx="90" cy="90" r="5" fill="black"/>
<circle cx="90" cy="150" r="5" fill="black"/>
<circle cx="90" cy="210" r="5" fill="black"/>
<circle cx="90" cy="270" r="5" fill="black"/>
<circle cx="90" cy="330" r="5" fill="black"/>
<circle cx="90" cy="390" r="5" fill="black"/>
<circle cx="90" cy="450" r="5" fill="black"/>
<circle cx="90" cy="510" r="5" fill="black"/>
<circle cx="90" cy="570" r="5" fill="black"/>
<circle cx="90" cy="630" r="5" fill="black"/>
<circle cx="90" cy="690" r="5" fill="black"/>
<circle cx="150" cy="30" r="5" fill="black"/>
<circle cx="150" cy="90" r="5" fill="black"/>
<circle cx="150" cy="150" r="5" fill="black"/>
<circle cx="150" cy="210" r="5" fill="black"/>
<circle cx="150" cy="270" r="5" fill="black"/>
<circle cx="150" cy="330" r="5" fill="black"/>
<circle cx="150" cy="390" r="5" fill="black"/>
<circle cx="150" cy="450" r="5" fill="black"/>
<circle cx="150" cy="510" r="5" fill="black"/>
<circle cx="150" cy="570" r="5" fill="black"/>
<circle cx="150" cy="630" r="5" fill="black"/>
<circle cx="150" cy="690" r="5" fill="black"/>
<circle cx="210" cy="30" r="5" fill="black"/>
<circle cx="210" cy="90" r="5" fill="black"/>
<circle cx="210" cy="150" r="5" fill="black"/>
<circle cx="210" cy="210" r="5" fill="black"/>
<circle cx="210" cy="270" r="5" fill="black"/>
<circle cx="210" cy="330" r="5" fill="black"/>
<circle cx="210" cy="390" r="5" fill="black"/>
<circle cx="210" cy="450" r="5" fill="black"/>
<circle cx="210" cy="510" r="5" fill="black"/>
<circle cx="210" cy="570" r="5" fill="black"/>
<circle cx="210" cy="630" r="5" fill="black"/>
<circle cx="210" cy="690" r="5" fill="black"/>
<circle cx="270" cy="30" r="5" fill="black"/>
<circle cx="270" cy="90" r="5" fill="black"/>
<circle cx="270" cy="150" r="5" fill="black"/>
<circle cx="270" cy="210" r="5" fill="black"/>
<circle cx="270" cy="270" r="5" fill="black"/>
<circle cx="270" cy="330" r="5" fill="black"/>
<circle cx="270" cy="390" r="5" fill="black"/>
<circle cx="270" cy="450" r="5" fill="black"/>
<circle cx="270" cy="510" r="5" fill="black"/>
<circle cx="270" cy="570" r="5" fill="black"/>
<circle cx="270" cy="630" r="5" fill="black"/>
<circle cx="270" cy="690" r="5" fill="black"/>
<circle cx="330" cy="30" r="5" fill="black"/>
<circle cx="330" cy="90" r="5" fill="black"/>
<circle cx="330" cy="150" r="5" fill="black"/>
<circle cx="330" cy="210" r="5" fill="black"/>
<circle cx="330" cy="270" r="5" fill="black"/>
<circle cx="330" cy="330" r="5" fill="black"/>
<circle cx="330" cy="390" r="5" fill="black"/>
<circle cx="330" cy="450" r="5" fill="black"/>
<circle cx="330" cy="510" r="5" fill="black"/>
<circle cx="330" cy="570" r="5" fill="black"/>
<circle cx="330" cy="630" r="5" fill="black"/>
<circle cx="330" cy="690" r="5" fill="black"/>
<circle cx="390" cy="30" r="5" fill="black"/>
<circle cx="390" cy="90" r="5" fill="black"/>
<circle cx="390" cy="150" r="5" fill="black"/>
<circle cx="390" cy="210" r="5" fill="black"/>
<circle cx="390" cy="270" r="5" fill="black"/>
<circle cx="390" cy="330" r="5" fill="black"/>
<circle cx="390" cy="390" r="5" fill="black"/>
<circle cx="390" cy="450" r="5" fill="black"/>
<circle cx="390" cy="510" r="5" fill="black"/>
<circle cx="390" cy="570" r="5" fill="black"/>
<circle cx="390" cy="630" r="5" fill="black"/>
<circle cx="390" cy="690" r="5" fill="black"/>
<circle cx="450" cy="30" r="5" fill="black"/>
<circle cx="450" cy="90" r="5" fill="black"/>
<circle cx="450" cy="150" r="5" fill="black"/>
<circle cx="450" cy="210" r="5" fill="black"/>
<circle cx="450" cy="270" r="5" fill="black"/>
<circle cx="450" cy="330" r="5" fill="black"/>
<circle cx="450" cy="390" r="5" fill="black"/>
<circle cx="450" cy="450" r="5" fill="black"/>
<circle cx="450" cy="510" r="5" fill="black"/>
<circle cx="450" cy="570" r="5" fill="black"/>
<circle cx="450" cy="630" r="5" fill="black"/>
<circle cx="450" cy="690" r="5" fill="black"/>
<circle cx="510" cy="30" r="5" fill="black"/>
<circle cx="510" cy="90" r="5" fill="black"/>
<circle cx="510" cy="150" r="5" fill="black"/>
<circle cx="510" cy="210" r="5" fill="black"/>
<circle cx="510" cy="270" r="5" fill="black"/>
<circle cx="510" cy="330" r="5" fill="black"/>
<circle cx="510" cy="390" r="5" fill="black"/>
<circle cx="510" cy="450" r="5" fill="black"/>
<circle cx="510" cy="510" r="5" fill="black"/>
<circle cx="510" cy="570" r="5" fill="black"/>
<circle cx="510" cy="630" r="5" fill="black"/>
<circle cx="510" cy="690" r="5" fill="black"/>
<circle cx="570" cy="30" r="5" fill="black"/>
<circle cx="570" cy="90" r="5" fill="black"/>
<circle cx="570" cy="150" r="5" fill="black"/>
<circle cx="570" cy="210" r="5" fill="black"/>
<circle cx="570" cy="270" r="5" fill="black"/>
<circle cx="570" cy="330" r="5" fill="black"/>
<circle cx="570" cy="390" r="5" fill="black"/>
<circle cx="570" cy="450" r="5" fill="black"/>
<circle cx="570" cy="510" r="5" fill="black"/>
<circle cx="570" cy="570" r="5" fill="black"/>
<circle cx="570" cy="630" r="5" fill="black"/>
<circle cx="570" cy="690" r="5" fill="black"/>
<circle cx="630" cy="30" r="5" fill="black"/>
<circle cx="630" cy="90" r="5" fill="black"/>
<circle cx="630" cy="150" r="5" fill="black"/>
<circle cx="630" cy="210" r="5" fill="black"/>
<circle cx="630" cy="270" r="5" fill="black"/>
<circle cx="630" cy="330" r="5" fill="black"/>
<circle cx="630" cy="390" r="5" fill="black"/>
<circle cx="630" cy="450" r="5" fill="black"/>
<circle cx="630" cy="510" r="5" fill="black"/>
<circle cx="630" cy="570" r="5" fill="black"/>
<circle cx="630" cy="630" r="5" fill="black"/>
<circle cx="630" cy="690" r="5" fill="black"/>
<circle cx="690" cy="30" r="5" fill="black"/>
<circle cx="690" cy="90" r="5" fill="black"/>
<circle cx="690" cy="150" r="5" fill="black"/>
<circle cx="690" cy="210" r="5" fill="black"/>
<circle cx="690" cy="270" r="5" fill="black"/>
<circle cx="690" cy="330" r="5" fill="black"/>
<circle cx="690" cy="390" r="5" fill="black"/>
<circle cx="690" cy="450" r="5" fill="black"/>
<circle cx="690" cy="510" r="5" fill="black"/>
<circle cx="690" cy="570" r="5" fill="black"/>
<circle cx="690" cy="630" r="5" fill="black"/>
<circle cx="690" cy="690" r="5" fill="black"/>
<line x1="30" y1="30" x2="90" y2="90" stroke="red" stroke-width="3"/>
<line x1="30" y1="90" x2="90" y2="150" stroke="red" stroke-width="3"/>
<line x1="30" y1="150" x2="90" y2="210" stroke="red" stroke-width="3"/>
<line x1="30" y1="210" x2="90" y2="270" stroke="red" stroke-width="3"/>
<line x1="30" y1="270" x2="90" y2="330" stroke="red" stroke-width="3"/>
<line x1="30" y1="330" x2="90" y2="390" stroke="red" stroke-width="3"/>
<line x1="30" y1="390" x2="90" y2="450" stroke="red" stroke-width="3"/>
<line x1="30" y1="450" x2="90" y2="510" stroke="red" stroke-width="3"/>
<line x1="30" y1="510" x2="90" y2="570" stroke="red" stroke-width="3"/>
<line x1="30" y1="570" x2="90" y2="630" stroke="red" stroke-width="3"/>
<line x1="30" y1="630" x2="90" y2="690" stroke="red" stroke-width="3"/>
<line x1="90" y1="30" x2="150" y2="90" stroke="red" stroke-width="3"/>
<line x1="90" y1="90" x2="150" y2="150" stroke="red" stroke-width="3"/>
<line x1="90" y1="150" x2="150" y2="210" stroke="red" stroke-width="3"/>
<line x1="90" y1="210" x2="150" y2="270" stroke="red" stroke-width="3"/>
<line x1="90" y1="270" x2="150" y2="330" stroke="red" stroke-width="3"/>
<line x1="90" y1="330" x2="150" y2="390" stroke="red" stroke-width="3"/>
<line x1="90" y1="390" x2="150" y2="450" stroke="red" stroke-width="3"/>
<line x1="90" y1="450" x2="150" y2="510" stroke="red" stroke-width="3"/>
<line x1="90" y1="510" x2="150" y2="570" stroke="red" stroke-width="3"/>
<line x1="90" y1="570" x2="150" y2="630" stroke="red" stroke-width="3"/>
<line x1="90" y1="630" x2="150" y2="690" stroke="red" stroke-width="3"/>
<line x1="150" y1="30" x2="210" y2="90" stroke="red" stroke-width="3"/>
<line x1="150" y1="90" x2="210" y2="150" stroke="red" stroke-width="3"/>
<line x1="150" y1="150" x2="210" y2="210" stroke="red" stroke-width="3"/>
<line x1="150" y1="210" x2="210" y2="270" stroke="red" stroke-width="3"/>
<line x1="150" y1="270" x2="210" y2="330" stroke="red" stroke-width="3"/>
<line x1="150" y1="330" x2="210" y2="390" stroke="red" stroke-width="3"/>
<line x1="150" y1="390" x2="210" y2="450" stroke="red" stroke-width="3"/>
<line x1="150" y1="450" x2="210" y2="510" stroke="red" stroke-width="3"/>
<line x1="150" y1="510" x2="210" y2="570" stroke="red" stroke-width="3"/>
<line x1="150" y1="570" x2="210" y2="630" stroke="red" stroke-width="3"/>
<line x1="150" y1="630" x2="210" y2="690" stroke="red" stroke-width="3"/>
<line x1="210" y1="30" x2="270" y2="90" stroke="red" stroke-width="3"/>
<line x1="210" y1="90" x2="270" y2="150" stroke="red" stroke-width="3"/>
<line x1="210" y1="150" x2="270" y2="210" stroke="red" stroke-width="3"/>
<line x1="210" y1="210" x2="270" y2="270" stroke="red" stroke-width="3"/>
<line x1="210" y1="270" x2="270" y2="330" stroke="red" stroke-width="3"/>
<line x1="210" y1="330" x2="270" y2="390" stroke="red" stroke-width="3"/>
<line x1="210" y1="390" x2="270" y2="450" stroke="red" stroke-width="3"/>
<line x1="210" y1="450" x2="270" y2="510" stroke="red" stroke-width="3"/>
<line x1="210" y1="510" x2="270" y2="570" stroke="red" stroke-width="3"/>
<line x1="210" y1="570" x2="270" y2="630" stroke="red" stroke-width="3"/>
<line x1="210" y1="630" x2="270" y2="690" stroke="red" stroke-width="3"/>
<line x1="270" y1="30" x2="330" y2="90" stroke="red" stroke-width="3"/>
<line x1="270" y1="90" x2="330" y2="150" stroke="red" stroke-width="3"/>
<line x1="270" y1="150" x2="330" y2="210" stroke="red" stroke-width="3"/>
<line x1="270" y1="210" x2="330" y2="270" stroke="red" stroke-width="3"/>
<line x1="270" y1="270" x2="330" y2="330" stroke="red" stroke-width="3"/>
<line x1="270" y1="330" x2="330" y2="390" stroke="red" stroke-width="3"/>
<line x1="270" y1="390" x2="330" y2="450" stroke="red" stroke-width="3"/>
<line x1="270" y1="450" x2="330" y2="510" stroke="red" stroke-width="3"/>
<line x1="270" y1="510" x2="330" y2="570" stroke="red" stroke-width="3"/>
<line x1="270" y1="570" x2="330" y2="630" stroke="red" stroke-width="3"/>
<line x1="270" y1="630" x2="330" y2="690" stroke="red" stroke-width="3"/>
<line x1="330" y1="30" x2="390" y2="90" stroke="red" stroke-width="3"/>
<line x1="330" y1="90" x2="390" y2="150" stroke="red" stroke-width="3"/>
<line x1="330" y1="150" x2="390" y2="210" stroke="red" stroke-width="3"/>
<line x1="330" y1="210" x2="390" y2="270" stroke="red" stroke-width="3"/>
<line x1="330" y1="270" x2="390" y2="330" stroke="red" stroke-width="3"/>
<line x1="330" y1="330" x2="390" y2="390" stroke="red" stroke-width="3"/>
<line x1="330" y1="390" x2="390" y2="450" stroke="red" stroke-width="3"/>
<line x1="330" y1="450" x2="390" y2="510" stroke="red" stroke-width="3"/>
<line x1="330" y1="510" x2="390" y2="570" stroke="red" stroke-width="3"/>
<line x1="330" y1="570" x2="390" y2="630" stroke="red" stroke-width="3"/>
<line x1="330" y1="630" x2="390" y2="690" stroke="red" stroke-width="3"/>
<line x1="390" y1="30" x2="450" y2="90" stroke="red" stroke-width="3"/>
<line x1="390" y1="90" x2="450" y2="150" stroke="red" stroke-width="3"/>
<line x1="390" y1="150" x2="450" y2="210" stroke="red" stroke-width="3"/>
<line x1="390" y1="210" x2="450" y2="270" stroke="red" stroke-width="3"/>
<line x1="390" y1="270" x2="450" y2="330" stroke="red" stroke-width="3"/>
<line x1="390" y1="330" x2="450" y2="390" stroke="red" stroke-width="3"/>
<line x1="390" y1="390" x2="450" y2="450" stroke="red" stroke-width="3"/>
<line x1="390" y1="450" x2="450" y2="510" stroke="red" stroke-width="3"/>
<line x1="390" y1="510" x2="450" y2="570" stroke="red" stroke-width="3"/>
<line x1="390" y1="570" x2="450" y2="630" stroke="red" stroke-width="3"/>
<line x1="390" y1="630" x2="450" y2="690" stroke="red" stroke-width="3"/>
<line x1="450" y1="30" x2="510" y2="90" stroke="red" stroke-width="3"/>
<line x1="450" y1="90" x2="510" y2="150" stroke="red" stroke-width="3"/>
<line x1="450" y1="150" x2="510" y2="210" stroke="red" stroke-width="3"/>
<line x1="450" y1="210" x2="510" y2="270" stroke="red" stroke-width="3"/>
<line x1="450" y1="270" x2="510" y2="330" stroke="red" stroke-width="3"/>
<line x1="450" y1="330" x2="510" y2="390" stroke="red" stroke-width="3"/>
<line x1="450" y1="390" x2="510" y2="450" stroke="red" stroke-width="3"/>
<line x1="450" y1="450" x2="510" y2="510" stroke="red" stroke-width="3"/>
<line x1="450" y1="510" x2="510" y2="570" stroke="red" stroke-width="3"/>
<line x1="450" y1="570" x2="510" y2="630" stroke="red" stroke-width="3"/>
<line x1="450" y1="630" x2="510" y2="690" stroke="red" stroke-width="3"/>
<line x1="510" y1="30" x2="570" y2="90" stroke="red" stroke-width="3"/>
<line x1="510" y1="90" x2="570" y2="150" stroke="red" stroke-width="3"/>
<line x1="510" y1="150" x2="570" y2="210" stroke="red" stroke-width="3"/>
<line x1="510" y1="210" x2="570" y2="270" stroke="red" stroke-width="3"/>
<line x1="510" y1="270" x2="570" y2="330" stroke="red" stroke-width="3"/>
<line x1="510" y1="330" x2="570" y2="390" stroke="red" stroke-width="3"/>
<line x1="510" y1="390" x2="570" y2="450" stroke="red" stroke-width="3"/>
<line x1="510" y1="450" x2="570" y2="510" stroke="red" stroke-width="3"/>
<line x1="510" y1="510" x2="570" y2="570" stroke="red" stroke-width="3"/>
<line x1="510" y1="570" x2="570" y2="630" stroke="red" stroke-width="3"/>
<line x1="510" y1="630" x2="570" y2="690" stroke="red" stroke-width="3"/>
<line x1="570" y1="30" x2="630" y2="90" stroke="red" stroke-width="3"/>
<line x1="570" y1="90" x2="630" y2="150" stroke="red" stroke-width="3"/>
<line x1="570" y1="150" x2="630" y2="210" stroke="red" stroke-width="3"/>
<line x1="570" y1="210" x2="630" y2="270" stroke="red" stroke-width="3"/>
<line x1="570" y1="270" x2="630" y2="330" stroke="red" stroke-width="3"/>
<line x1="570" y1="330" x2="630" y2="390" stroke="red" stroke-width="3"/>
<line x1="570" y1="390" x2="630" y2="450" stroke="red" stroke-width="3"/>
<line x1="570" y1="450" x2="630" y2="510" stroke="red" stroke-width="3"/>
<line x1="570" y1="510" x2="630" y2="570" stroke="red" stroke-width="3"/>
<line x1="570" y1="570" x2="630" y2="630" stroke="red" stroke-width="3"/>
<line x1="570" y1="630" x2="630" y2="690" stroke="red" stroke-width="3"/>
<line x1="630" y1="30" x2="690" y2="90" stroke="red" stroke-width="3"/>
<line x1="630" y1="90" x2="690" y2="150" stroke="red" stroke-width="3"/>
<line x1="630" y1="150" x2="690" y2="210" stroke="red" stroke-width="3"/>
<line x1="630" y1="210" x2="690" y2="270" stroke="red" stroke-width="3"/>
<line x1="630" y1="270" x2="690" y2="330" stroke="red" stroke-width="3"/>
<line x1="630" y1="330" x2="690" y2="390" stroke="red" stroke-width="3"/>
<line x1="630" y1="390" x2="690" y2="450" stroke="red" stroke-width="3"/>
<line x1="630" y1="450" x2="690" y2="510" stroke="red" stroke-width="3"/>
<line x1="630" y1="510" x2="690" y2="570" stroke="red" stroke-width="3"/>
<line x1="630" y1="570" x2="690" y2="630" stroke="red" stroke-width="3"/>
<line x1="630" y1="630" x2="690" y2="690" stroke="red" stroke-width="3"/>
</svg>