<svg xmlns="http://www.w3.org/2000/svg" width="300" height="300" viewBox="0 0 300 300">
<rect width="100%" height="100%" fill="white"/>
<circle cx="30" cy="30" r="5" fill="black"/>
<circle cx="30" cy="90" r="5" fill="black"/>
<circle cx="30" cy="150" r="5" fill="black"/>
<circle cx="30" cy="210" r="5" fill="black"/>
<circle cx="30" cy="270" r="5" fill="black"/>
<circle cx="90" cy="30" r="5" fill="black"/>
<circle cx="90" cy="90" r="5" fill="black"/>
<circle cx="90" cy="150" r="5" fill="black"/>
<circle cx="90" cy="210" r="5" fill="black"/>
<circle cx="90" cy="270" r="5" fill="black"/>
<circle cx="150" cy="30" r="5" fill="black"/>
<circle cx="150" cy="90" r="5" fill="black"/>
<circle cx="150" cy="150" r="5" fill="black"/>
<circle cx="150" cy="210" r="5" fill="black"/>
<circle cx="150" cy="270" r="5" fill="black"/>
<circle cx="210" cy="30" r="5" fill="black"/>
<circle cx="210" cy="90" r="5" fill="black"/>
<circle cx="210" cy="150" r="5" fill="black"/>
<circle cx="210" cy="210" r="5" fill="black"/>
<circle cx="210" cy="270" r="5" fill="black"/>
<circle cx="270" cy="30" r="5" fill="black"/>
<circle cx="270" cy="90" r="5" fill="black"/>
<circle cx="270" cy="150" r="5" fill="black"/>
<circle cx="270" cy="210" r="5" fill="black"/>
<circle cx="270" cy="270" r="5" fill="black"/>
<line x1="30" y1="30" x2="90" y2="90" stroke="red" stroke-width="3"/>
<line x1="30" y1="90" x2="90" y2="150" stroke="red" stroke-width="3"/>
<line x1="30" y1="150" x2="90" y2="210" stroke="red" stroke-width="3"/>
<line x1="30" y1="210" x2="90" y2="270" stroke="red" stroke-width="3"/>
<line x1="90" y1="30" x2="150" y2="90" stroke="red" stroke-width="3"/>
<line x1="90" y1="90" x2="150" y2="150" stroke="red" stroke-width="3"/>
<line x1="90" y1="150" x2="150" y2="210" stroke="red" stroke-width="3"/>
<line x1="90" y1="210" x2="150" y2="270" stroke="red" stroke-width="3"/>
<line x1="150" y1="30" x2="210" y2="90" stroke="red" stroke-width="3"/>
<line x1="150" y1="90" x2="210" y2="150" stroke="red" stroke-width="3"/>
<line x1="150" y1="150" x2="210" y2="210" stroke="red" stroke-width="3"/>
<line x1="150" y1="210" x2="210" y2="270" stroke="red" stroke-width="3"/>
<line x1="210" y1="30" x2="270" y2="90" stroke="red" stroke-width="3"/>
<line x1="210" y1="90" x2="270" y2="150" stroke="red" stroke-width="3"/>
<line x1="210" y1="150" x2="270" y2="210" stroke="red" stroke-width="3"/>
<line x1="210" y1="210" x2="270" y2="270" stroke="red" stroke-width="3"/>
</svg>